{
  "accessors": [
    {
      "bufferView": 2,
      "componentType": 5126,
      "count": 16359,
      "max": [
        1.064797282218933,
        3.7907538414001465,
        2.3404793739318848
      ],
      "min": [
        -1.2117325067520142,
        -0.008235454559326172,
        -1.927828073501587
      ],
      "type": "VEC3"
    },
    {
      "bufferView": 2,
      "byteOffset": 196308,
      "componentType": 5126,
      "count": 16359,
      "max": [
        0.9999911785125732,
        0.9998454451560974,
        0.9999628067016602
      ],
      "min": [
        -0.9999105930328369,
        -0.9999944567680359,
        -0.9996933341026306
      ],
      "type": "VEC3"
    },
    {
      "bufferView": 3,
      "componentType": 5126,
      "count": 16359,
      "max": [
        0.9999998211860657,
        0.9999933838844299,
        0.9999791383743286,
        1.0
      ],
      "min": [
        -0.9999696612358093,
        -0.9999775290489197,
        -0.9999194145202637,
        -1.0
      ],
      "type": "VEC4"
    },
    {
      "bufferView": 1,
      "componentType": 5126,
      "count": 16359,
      "max": [
        0.9912619590759277,
        0.9918474555015564
      ],
      "min": [
        0.011033260263502598,
        0.009501993656158447
      ],
      "type": "VEC2"
    },
    {
      "bufferView": 1,
      "byteOffset": 130872,
      "componentType": 5126,
      "count": 16359,
      "max": [
        0.9912619590759277,
        0.9918474555015564
      ],
      "min": [
        0.011033260263502598,
        0.009501993656158447
      ],
      "type": "VEC2"
    },
    {
      "bufferView": 1,
      "byteOffset": 261744,
      "componentType": 5126,
      "count": 16359,
      "max": [
        0.9912619590759277,
        0.9918474555015564
      ],
      "min": [
        0.011033260263502598,
        0.009501993656158447
      ],
      "type": "VEC2"
    },
    {
      "bufferView": 1,
      "byteOffset": 392616,
      "componentType": 5126,
      "count": 16359,
      "max": [
        0.9912619590759277,
        0.9918474555015564
      ],
      "min": [
        0.011033260263502598,
        0.009501993656158447
      ],
      "type": "VEC2"
    },
    {
      "bufferView": 1,
      "byteOffset": 523488,
      "componentType": 5126,
      "count": 16359,
      "max": [
        0.9912619590759277,
        0.9918474555015564
      ],
      "min": [
        0.011033260263502598,
        0.009501993656158447
      ],
      "type": "VEC2"
    },
    {
      "bufferView": 0,
      "componentType": 5125,
      "count": 93210,
      "type": "SCALAR"
    }
  ],
  "asset": {
    "extras": {
      "author": "AIUM2 (https://sketchfab.com/alfredonicolas)",
      "license": "CC-BY-4.0 (http://creativecommons.org/licenses/by/4.0/)",
      "source": "https://sketchfab.com/3d-models/rabbit-4cf175ddd8d94c7f8705d0d3b9586e6e",
      "title": "Rabbit"
    },
    "generator": "Sketchfab-13.15.0",
    "version": "2.0"
  },
  "bufferViews": [
    {
      "buffer": 0,
      "byteLength": 372840,
      "name": "floatBufferViews",
      "target": 34963
    },
    {
      "buffer": 0,
      "byteLength": 654360,
      "byteOffset": 372840,
      "byteStride": 8,
      "name": "floatBufferViews",
      "target": 34962
    },
    {
      "buffer": 0,
      "byteLength": 392616,
      "byteOffset": 1027200,
      "byteStride": 12,
      "name": "floatBufferViews",
      "target": 34962
    },
    {
      "buffer": 0,
      "byteLength": 261744,
      "byteOffset": 1419816,
      "byteStride": 16,
      "name": "floatBufferViews",
      "target": 34962
    }
  ],
  "buffers": [
    {
      "byteLength": 1681560,
      "uri": "scene.bin"
    }
  ],
  "extensionsRequired": [
    "KHR_materials_pbrSpecularGlossiness"
  ],
  "extensionsUsed": [
    "KHR_materials_pbrSpecularGlossiness"
  ],
  "images": [
    {
      "uri": "textures/material_0_diffuse.png"
    },
    {
      "uri": "textures/material_0_specularGlossiness.png"
    },
    {
      "uri": "textures/material_0_normal.png"
    },
    {
      "uri": "textures/material_0_occlusion.png"
    }
  ],
  "materials": [
    {
      "doubleSided": true,
      "extensions": {
        "KHR_materials_pbrSpecularGlossiness": {
          "diffuseFactor": [
            1.0,
            1.0,
            1.0,
            1.0
          ],
          "diffuseTexture": {
            "index": 0
          },
          "glossinessFactor": 1.0,
          "specularFactor": [
            1.0,
            1.0,
            1.0
          ],
          "specularGlossinessTexture": {
            "index": 1
          }
        }
      },
      "name": "material_0",
      "normalTexture": {
        "index": 2
      },
      "occlusionTexture": {
        "index": 3
      }
    }
  ],
  "meshes": [
    {
      "name": "Object_0",
      "primitives": [
        {
          "attributes": {
            "NORMAL": 1,
            "POSITION": 0,
            "TANGENT": 2,
            "TEXCOORD_0": 3,
            "TEXCOORD_1": 4,
            "TEXCOORD_2": 5,
            "TEXCOORD_3": 6,
            "TEXCOORD_4": 7
          },
          "indices": 8,
          "material": 0,
          "mode": 4
        }
      ]
    }
  ],
  "nodes": [
    {
      "children": [
        1
      ],
      "matrix": [
        1.0,
        0.0,
        0.0,
        0.0,
        0.0,
        2.220446049250313e-16,
        -1.0,
        0.0,
        0.0,
        1.0,
        2.220446049250313e-16,
        0.0,
        0.0,
        0.0,
        0.0,
        1.0
      ],
      "name": "Sketchfab_model"
    },
    {
      "children": [
        2
      ],
      "name": "root"
    },
    {
      "children": [
        3
      ],
      "matrix": [
        1.0,
        0.0,
        0.0,
        0.0,
        0.0,
        2.220446049250313e-16,
        1.0,
        0.0,
        0.0,
        -1.0,
        2.220446049250313e-16,
        0.0,
        0.0,
        0.0,
        0.0,
        1.0
      ],
      "name": "GLTF_SceneRootNode"
    },
    {
      "children": [
        4
      ],
      "matrix": [
        0.009999999776482582,
        0.0,
        0.0,
        0.0,
        0.0,
        0.009999999776482582,
        0.0,
        0.0,
        0.0,
        0.0,
        0.009999999776482582,
        0.0,
        0.0,
        0.0,
        0.0,
        1.0
      ],
      "name": "RootNode.0_0"
    },
    {
      "children": [
        5
      ],
      "name": "rabbit.1_1"
    },
    {
      "mesh": 0,
      "name": "Object_5"
    }
  ],
  "samplers": [
    {
      "magFilter": 9729,
      "minFilter": 9987,
      "wrapS": 10497,
      "wrapT": 10497
    }
  ],
  "scene": 0,
  "scenes": [
    {
      "name": "Sketchfab_Scene",
      "nodes": [
        0
      ]
    }
  ],
  "textures": [
    {
      "sampler": 0,
      "source": 0
    },
    {
      "sampler": 0,
      "source": 1
    },
    {
      "sampler": 0,
      "source": 2
    },
    {
      "sampler": 0,
      "source": 3
    }
  ]
}
